<svg xmlns="http://www.w3.org/2000/svg" viewBox="0 0 64 64">
  <defs>
    <radialGradient id="g" cx="32" cy="32" r="30" fx="25" fy="22">
      <stop offset="0%" stop-color="#5ec0ff" />
      <stop offset="50%" stop-color="#1f8cff" />
      <stop offset="100%" stop-color="#0f4a8e" />
    </radialGradient>
    <linearGradient id="l" x1="0" y1="0" x2="1" y2="1">
      <stop offset="0%" stop-color="#2b8f4d" />
      <stop offset="100%" stop-color="#145e31" />
    </linearGradient>
  </defs>
  <circle cx="32" cy="32" r="30" fill="url(#g)" />
  <path d="M12 28c6-12 18-8 26-8s16 6 14 18c-2 12-10 16-20 16s-20-4-20-16c0-2 0-4 0-6z" fill="url(#l)" />
  <path d="M14 40c6 6 14 4 20 2s10-8 10-14c0-1 0-2 0-3-2 2-6 4-10 4-6 0-10-4-14 0s-6 8-6 11z" fill="#7fc595" opacity="0.9" />
  <path d="M46 22c-4 2-8 6-6 12 2 8 10 8 12 6 2-4 2-8 0-12-2-2-4-4-6-6z" fill="#81b9e6" opacity="0.8" />
  <path d="M20 18a4 4 0 0 1 4 4 4 4 0 0 1-4 4 4 4 0 0 1-4-4 4 4 0 0 1 4-4z" fill="#d6f0ff" opacity="0.85" />
  <path d="M30 10a3 3 0 0 1 3 3 3 3 0 0 1-3 3 3 3 0 0 1-3-3 3 3 0 0 1 3-3z" fill="#d6efff" opacity="0.7" />
  <path d="M38 46a2.5 2.5 0 1 1 0 5 2.5 2.5 0 0 1 0-5z" fill="#ecf5ff" opacity="0.7" />
</svg>
